<svg width="254" height="254" viewBox="0 0 254 254" fill="none" xmlns="http://www.w3.org/2000/svg">
<rect y="90" width="19" height="19" fill="white"/>
<rect y="108" width="19" height="19" fill="white"/>
<rect y="126" width="19" height="19" fill="white"/>
<rect y="144" width="19" height="19" fill="white"/>
<rect y="162" width="19" height="19" fill="white"/>
<rect y="180" width="19" height="19" fill="white"/>
<rect y="198" width="19" height="19" fill="white"/>
<rect x="18" y="72" width="19" height="19" fill="white"/>
<rect x="18" y="108" width="19" height="19" fill="white"/>
<rect x="18" y="216" width="19" height="19" fill="white"/>
<rect x="36" y="54" width="19" height="19" fill="white"/>
<rect x="36" y="126" width="19" height="19" fill="white"/>
<rect x="36" y="234" width="19" height="19" fill="white"/>
<rect x="54" y="36" width="19" height="19" fill="white"/>
<rect x="54" y="144" width="19" height="19" fill="white"/>
<rect x="54" y="234" width="19" height="19" fill="white"/>
<rect x="72" y="18" width="19" height="19" fill="white"/>
<rect x="72" y="162" width="19" height="19" fill="white"/>
<rect x="72" y="234" width="19" height="19" fill="white"/>
<rect x="90" width="19" height="19" fill="white"/>
<rect x="90" y="180" width="19" height="19" fill="white"/>
<rect x="90" y="234" width="19" height="19" fill="white"/>
<rect x="108" width="19" height="19" fill="white"/>
<rect x="108" y="180" width="19" height="19" fill="white"/>
<rect x="108" y="234" width="19" height="19" fill="white"/>
<rect x="126" width="19" height="19" fill="white"/>
<rect x="126" y="180" width="19" height="19" fill="white"/>
<rect x="126" y="234" width="19" height="19" fill="white"/>
<rect x="144" width="19" height="19" fill="white"/>
<rect x="144" y="180" width="19" height="19" fill="white"/>
<rect x="144" y="234" width="19" height="19" fill="white"/>
<rect x="162" y="18" width="19" height="19" fill="white"/>
<rect x="162" y="162" width="19" height="19" fill="white"/>
<rect x="162" y="234" width="19" height="19" fill="white"/>
<rect x="180" y="36" width="19" height="19" fill="white"/>
<rect x="180" y="144" width="19" height="19" fill="white"/>
<rect x="180" y="234" width="19" height="19" fill="white"/>
<rect x="198" y="54" width="19" height="19" fill="white"/>
<rect x="198" y="126" width="19" height="19" fill="white"/>
<rect x="198" y="234" width="19" height="19" fill="white"/>
<rect x="216" y="72" width="19" height="19" fill="white"/>
<rect x="216" y="108" width="19" height="19" fill="white"/>
<rect x="216" y="216" width="19" height="19" fill="white"/>
<rect x="234" y="90" width="19" height="19" fill="white"/>
<rect x="234" y="108" width="19" height="19" fill="white"/>
<rect x="234" y="126" width="19" height="19" fill="white"/>
<rect x="234" y="144" width="19" height="19" fill="white"/>
<rect x="234" y="162" width="19" height="19" fill="white"/>
<rect x="234" y="180" width="19" height="19" fill="white"/>
<rect x="234" y="198" width="19" height="19" fill="white"/>
</svg>
