<svg width="254" height="254" viewBox="0 0 254 254" fill="none" xmlns="http://www.w3.org/2000/svg">
<rect y="217" width="19" height="19" fill="white"/>
<rect y="199" width="19" height="19" fill="white"/>
<rect y="181" width="19" height="19" fill="white"/>
<rect y="163" width="19" height="19" fill="white"/>
<rect y="145" width="19" height="19" fill="white"/>
<rect y="127" width="19" height="19" fill="white"/>
<rect y="109" width="19" height="19" fill="white"/>
<rect x="18" y="235" width="19" height="19" fill="white"/>
<rect x="18" y="91" width="19" height="19" fill="white"/>
<rect x="36" y="235" width="19" height="19" fill="white"/>
<rect x="36" y="73" width="19" height="19" fill="white"/>
<rect x="54" y="235" width="19" height="19" fill="white"/>
<rect x="54" y="55" width="19" height="19" fill="white"/>
<rect x="72" y="235" width="19" height="19" fill="white"/>
<rect x="72" y="217" width="19" height="19" fill="white"/>
<rect x="72" y="199" width="19" height="19" fill="white"/>
<rect x="72" y="181" width="19" height="19" fill="white"/>
<rect x="72" y="163" width="19" height="19" fill="white"/>
<rect x="72" y="37" width="19" height="19" fill="white"/>
<rect x="90" y="235" width="19" height="19" fill="white"/>
<rect x="90" y="145" width="19" height="19" fill="white"/>
<rect x="90" y="19" width="19" height="19" fill="white"/>
<rect x="108" y="235" width="19" height="19" fill="white"/>
<rect x="108" y="145" width="19" height="19" fill="white"/>
<rect x="108" y="1" width="19" height="19" fill="white"/>
<rect x="126" y="235" width="19" height="19" fill="white"/>
<rect x="126" y="145" width="19" height="19" fill="white"/>
<rect x="126" y="1" width="19" height="19" fill="white"/>
<rect x="144" y="235" width="19" height="19" fill="white"/>
<rect x="144" y="145" width="19" height="19" fill="white"/>
<rect x="144" y="19" width="19" height="19" fill="white"/>
<rect x="162" y="235" width="19" height="19" fill="white"/>
<rect x="162" y="217" width="19" height="19" fill="white"/>
<rect x="162" y="199" width="19" height="19" fill="white"/>
<rect x="162" y="181" width="19" height="19" fill="white"/>
<rect x="162" y="163" width="19" height="19" fill="white"/>
<rect x="162" y="37" width="19" height="19" fill="white"/>
<rect x="180" y="235" width="19" height="19" fill="white"/>
<rect x="180" y="55" width="19" height="19" fill="white"/>
<rect x="198" y="235" width="19" height="19" fill="white"/>
<rect x="198" y="73" width="19" height="19" fill="white"/>
<rect x="216" y="235" width="19" height="19" fill="white"/>
<rect x="216" y="91" width="19" height="19" fill="white"/>
<rect x="234" y="217" width="19" height="19" fill="white"/>
<rect x="234" y="199" width="19" height="19" fill="white"/>
<rect x="234" y="181" width="19" height="19" fill="white"/>
<rect x="234" y="163" width="19" height="19" fill="white"/>
<rect x="234" y="145" width="19" height="19" fill="white"/>
<rect x="234" y="127" width="19" height="19" fill="white"/>
<rect x="234" y="109" width="19" height="19" fill="white"/>
</svg>
