<svg width="254" height="254" viewBox="0 0 254 254" fill="none" xmlns="http://www.w3.org/2000/svg">
<rect x="18" y="91" width="19" height="19" fill="white"/>
<rect x="18" y="73" width="19" height="19" fill="white"/>
<rect x="18" y="55" width="19" height="19" fill="white"/>
<rect x="36" y="109" width="19" height="19" fill="white"/>
<rect x="36" y="37" width="19" height="19" fill="white"/>
<rect x="36" y="1" width="19" height="19" fill="white"/>
<rect x="54" y="127" width="19" height="19" fill="white"/>
<rect x="54" y="109" width="19" height="19" fill="white"/>
<rect x="54" y="91" width="19" height="19" fill="white"/>
<rect x="54" y="73" width="19" height="19" fill="white"/>
<rect x="54" y="55" width="19" height="19" fill="white"/>
<rect x="54" y="37" width="19" height="19" fill="white"/>
<rect x="54" y="19" width="19" height="19" fill="white"/>
<rect x="54" y="1" width="19" height="19" fill="white"/>
<rect x="72" y="235" width="19" height="19" fill="white"/>
<rect x="72" y="217" width="19" height="19" fill="white"/>
<rect x="72" y="145" width="19" height="19" fill="white"/>
<rect x="72" y="127" width="19" height="19" fill="white"/>
<rect x="72" y="109" width="19" height="19" fill="white"/>
<rect x="72" y="91" width="19" height="19" fill="white"/>
<rect x="72" y="73" width="19" height="19" fill="white"/>
<rect x="72" y="55" width="19" height="19" fill="white"/>
<rect x="72" y="37" width="19" height="19" fill="white"/>
<rect x="72" y="19" width="19" height="19" fill="white"/>
<rect x="72" y="1" width="19" height="19" fill="white"/>
<rect x="90" y="235" width="19" height="19" fill="white"/>
<rect x="90" y="217" width="19" height="19" fill="white"/>
<rect x="90" y="163" width="19" height="19" fill="white"/>
<rect x="90" y="145" width="19" height="19" fill="white"/>
<rect x="90" y="127" width="19" height="19" fill="white"/>
<rect x="90" y="109" width="19" height="19" fill="white"/>
<rect x="90" y="91" width="19" height="19" fill="white"/>
<rect x="90" y="73" width="19" height="19" fill="white"/>
<rect x="90" y="55" width="19" height="19" fill="white"/>
<rect x="90" y="37" width="19" height="19" fill="white"/>
<rect x="90" y="19" width="19" height="19" fill="white"/>
<rect x="90" y="1" width="19" height="19" fill="white"/>
<rect x="108" y="235" width="19" height="19" fill="white"/>
<rect x="108" y="217" width="19" height="19" fill="white"/>
<rect x="108" y="199" width="19" height="19" fill="white"/>
<rect x="108" y="181" width="19" height="19" fill="white"/>
<rect x="108" y="163" width="19" height="19" fill="white"/>
<rect x="108" y="145" width="19" height="19" fill="white"/>
<rect x="108" y="127" width="19" height="19" fill="white"/>
<rect x="108" y="109" width="19" height="19" fill="white"/>
<rect x="108" y="91" width="19" height="19" fill="white"/>
<rect x="108" y="73" width="19" height="19" fill="white"/>
<rect x="108" y="55" width="19" height="19" fill="white"/>
<rect x="108" y="37" width="19" height="19" fill="white"/>
<rect x="108" y="19" width="19" height="19" fill="white"/>
<rect x="108" y="1" width="19" height="19" fill="white"/>
<rect x="126" y="235" width="19" height="19" fill="white"/>
<rect x="126" y="217" width="19" height="19" fill="white"/>
<rect x="126" y="199" width="19" height="19" fill="white"/>
<rect x="126" y="181" width="19" height="19" fill="white"/>
<rect x="126" y="163" width="19" height="19" fill="white"/>
<rect x="126" y="145" width="19" height="19" fill="white"/>
<rect x="126" y="127" width="19" height="19" fill="white"/>
<rect x="126" y="109" width="19" height="19" fill="white"/>
<rect x="126" y="91" width="19" height="19" fill="white"/>
<rect x="126" y="73" width="19" height="19" fill="white"/>
<rect x="126" y="55" width="19" height="19" fill="white"/>
<rect x="126" y="37" width="19" height="19" fill="white"/>
<rect x="126" y="19" width="19" height="19" fill="white"/>
<rect x="126" y="1" width="19" height="19" fill="white"/>
<rect x="144" y="235" width="19" height="19" fill="white"/>
<rect x="144" y="217" width="19" height="19" fill="white"/>
<rect x="144" y="163" width="19" height="19" fill="white"/>
<rect x="144" y="145" width="19" height="19" fill="white"/>
<rect x="144" y="127" width="19" height="19" fill="white"/>
<rect x="144" y="109" width="19" height="19" fill="white"/>
<rect x="144" y="91" width="19" height="19" fill="white"/>
<rect x="144" y="73" width="19" height="19" fill="white"/>
<rect x="144" y="55" width="19" height="19" fill="white"/>
<rect x="144" y="37" width="19" height="19" fill="white"/>
<rect x="144" y="19" width="19" height="19" fill="white"/>
<rect x="144" y="1" width="19" height="19" fill="white"/>
<rect x="162" y="235" width="19" height="19" fill="white"/>
<rect x="162" y="217" width="19" height="19" fill="white"/>
<rect x="162" y="145" width="19" height="19" fill="white"/>
<rect x="162" y="127" width="19" height="19" fill="white"/>
<rect x="162" y="109" width="19" height="19" fill="white"/>
<rect x="162" y="91" width="19" height="19" fill="white"/>
<rect x="162" y="73" width="19" height="19" fill="white"/>
<rect x="162" y="55" width="19" height="19" fill="white"/>
<rect x="162" y="37" width="19" height="19" fill="white"/>
<rect x="162" y="19" width="19" height="19" fill="white"/>
<rect x="162" y="1" width="19" height="19" fill="white"/>
<rect x="180" y="127" width="19" height="19" fill="white"/>
<rect x="180" y="109" width="19" height="19" fill="white"/>
<rect x="180" y="91" width="19" height="19" fill="white"/>
<rect x="180" y="73" width="19" height="19" fill="white"/>
<rect x="180" y="55" width="19" height="19" fill="white"/>
<rect x="180" y="37" width="19" height="19" fill="white"/>
<rect x="180" y="19" width="19" height="19" fill="white"/>
<rect x="180" y="1" width="19" height="19" fill="white"/>
<rect x="198" y="109" width="19" height="19" fill="white"/>
<rect x="198" y="37" width="19" height="19" fill="white"/>
<rect x="198" y="1" width="19" height="19" fill="white"/>
<rect x="216" y="91" width="19" height="19" fill="white"/>
<rect x="216" y="73" width="19" height="19" fill="white"/>
<rect x="216" y="55" width="19" height="19" fill="white"/>
</svg>
