<svg width="155" height="167" viewBox="0 0 155 167" fill="none" xmlns="http://www.w3.org/2000/svg">
<path d="M147.188 0V7.81934H155V43.7383H116.433V50.0908H139.622V59.1318H108.866V73.3037H124.244V89.9199H115.213V82.3447H108.866V109.223H101.055V120.707H93.4883V128.524H85.6768V158.09H93.4883V166.888H76.8896V143.92H69.0781V136.101H62.7324V143.92H54.9209V151.494H47.3535V158.09H54.9209V166.888H38.3223V136.101H30.7559V128.525H22.9443V120.706H15.377V113.132H7.56641V105.312H0V57.9102H8.78711V73.3037H16.5977V80.8779H24.165V88.6973H38.3223V81.1221H46.1338V73.3037H57.6064V65.4844H69.0791V57.9102H76.8887V7.81934H84.4561V0H147.188ZM92.0234 9.24023V18.5254H101.299V9.24023H92.0234Z" fill="white"/>
</svg>
