<svg width="254" height="254" viewBox="0 0 254 254" fill="none" xmlns="http://www.w3.org/2000/svg">
<g clip-path="url(#clip0_33_25)">
<rect y="161" width="24" height="24" fill="white"/>
<rect y="115" width="24" height="24" fill="white"/>
<rect y="69" width="24" height="24" fill="white"/>
<path d="M23 161H47V185H23V161Z" fill="white"/>
<path d="M23 115H47V139H23V115Z" fill="white"/>
<path d="M23 69H47V93H23V69Z" fill="white"/>
<rect x="46" y="161" width="24" height="24" fill="white"/>
<rect x="46" y="138" width="24" height="24" fill="white"/>
<rect x="46" y="115" width="24" height="24" fill="white"/>
<rect x="46" y="92" width="24" height="24" fill="white"/>
<rect x="46" y="69" width="24" height="24" fill="white"/>
<rect x="69" y="230" width="24" height="24" fill="white"/>
<rect x="69" y="207" width="24" height="24" fill="white"/>
<rect x="69" y="184" width="24" height="24" fill="white"/>
<rect x="69" y="46" width="24" height="24" fill="white"/>
<rect x="69" y="23" width="24" height="24" fill="white"/>
<rect x="69" width="24" height="24" fill="white"/>
<rect x="92" y="184" width="24" height="24" fill="white"/>
<rect x="92" y="46" width="24" height="24" fill="white"/>
<rect x="115" y="230" width="24" height="24" fill="white"/>
<rect x="115" y="207" width="24" height="24" fill="white"/>
<rect x="115" y="184" width="24" height="24" fill="white"/>
<rect x="115" y="46" width="24" height="24" fill="white"/>
<rect x="115" y="23" width="24" height="24" fill="white"/>
<rect x="115" width="24" height="24" fill="white"/>
<rect x="138" y="184" width="24" height="24" fill="white"/>
<rect x="138" y="46" width="24" height="24" fill="white"/>
<rect x="161" y="230" width="24" height="24" fill="white"/>
<rect x="161" y="207" width="24" height="24" fill="white"/>
<rect x="161" y="184" width="24" height="24" fill="white"/>
<rect x="161" y="46" width="24" height="24" fill="white"/>
<rect x="161" y="23" width="24" height="24" fill="white"/>
<rect x="161" width="24" height="24" fill="white"/>
<rect x="184" y="161" width="24" height="24" fill="white"/>
<rect x="184" y="138" width="24" height="24" fill="white"/>
<rect x="184" y="115" width="24" height="24" fill="white"/>
<rect x="184" y="92" width="24" height="24" fill="white"/>
<rect x="184" y="69" width="24" height="24" fill="white"/>
<rect x="207" y="161" width="24" height="24" fill="white"/>
<rect x="207" y="115" width="24" height="24" fill="white"/>
<rect x="207" y="69" width="24" height="24" fill="white"/>
<rect x="230" y="161" width="24" height="24" fill="white"/>
<rect x="230" y="115" width="24" height="24" fill="white"/>
<rect x="230" y="69" width="24" height="24" fill="white"/>
<path d="M99.7643 99.2857H106.621V106.143H99.7643V99.2857ZM106.621 99.2857H113.479V106.143H106.621V99.2857ZM106.621 92.4286H113.479V99.2857H106.621V92.4286ZM113.479 99.2857H120.336V106.143H113.479V99.2857ZM113.479 106.143H120.336V113H113.479V106.143ZM120.336 106.143H127.193V113H120.336V106.143ZM106.621 106.143H113.479V113H106.621V106.143ZM99.7643 106.143H106.621V113H99.7643V106.143ZM92.9071 106.143H99.7643V113H92.9071V106.143ZM92.9071 113H99.7643V119.857H92.9071V113ZM86.05 113H92.9071V119.857H86.05V113ZM99.7643 113H106.621V119.857H99.7643V113ZM92.9071 119.857H99.7643V126.714H92.9071V119.857ZM92.9071 126.714H99.7643V133.571H92.9071V126.714ZM92.9071 133.571H99.7643V140.429H92.9071V133.571ZM99.7643 133.571H106.621V140.429H99.7643V133.571ZM106.621 133.571H113.479V140.429H106.621V133.571ZM113.479 133.571H120.336V140.429H113.479V133.571ZM120.336 133.571H127.193V140.429H120.336V133.571ZM127.193 133.571H134.05V140.429H127.193V133.571ZM127.193 126.714H134.05V133.571H127.193V126.714ZM127.193 119.857H134.05V126.714H127.193V119.857ZM127.193 113H134.05V119.857H127.193V113ZM120.336 113H127.193V119.857H120.336V113ZM113.479 113H120.336V119.857H113.479V113ZM120.336 119.857H127.193V126.714H120.336V119.857ZM120.336 126.714H127.193V133.571H120.336V126.714ZM120.336 140.429H127.193V147.286H120.336V140.429ZM127.193 140.429H134.05V147.286H127.193V140.429ZM127.193 147.286H134.05V154.143H127.193V147.286ZM127.193 154.143H134.05V161H127.193V154.143ZM120.336 154.143H127.193V161H120.336V154.143ZM120.336 147.286H127.193V154.143H120.336V147.286ZM113.479 140.429H120.336V147.286H113.479V140.429ZM106.621 140.429H113.479V147.286H106.621V140.429ZM99.7643 140.429H106.621V147.286H99.7643V140.429ZM92.9071 140.429H99.7643V147.286H92.9071V140.429ZM92.9071 147.286H99.7643V154.143H92.9071V147.286ZM92.9071 154.143H99.7643V161H92.9071V154.143ZM86.05 154.143H92.9071V161H86.05V154.143ZM86.05 147.286H92.9071V154.143H86.05V147.286ZM86.05 140.429H92.9071V147.286H86.05V140.429ZM86.05 133.571H92.9071V140.429H86.05V133.571ZM86.05 126.714H92.9071V133.571H86.05V126.714ZM86.05 119.857H92.9071V126.714H86.05V119.857ZM147.325 154.143H154.182V161H147.325V154.143ZM154.182 154.143H161.039V161H154.182V154.143ZM154.182 147.286H161.039V154.143H154.182V147.286ZM154.182 140.429H161.039V147.286H154.182V140.429ZM154.182 133.571H161.039V140.429H154.182V133.571ZM154.182 126.714H161.039V133.571H154.182V126.714ZM154.182 119.857H161.039V126.714H154.182V119.857ZM147.325 119.857H154.182V126.714H147.325V119.857ZM147.325 126.714H154.182V133.571H147.325V126.714ZM147.325 133.571H154.182V140.429H147.325V133.571ZM147.325 140.429H154.182V147.286H147.325V140.429ZM147.325 147.286H154.182V154.143H147.325V147.286ZM147.325 113H154.182V119.857H147.325V113ZM154.182 113H161.039V119.857H154.182V113ZM154.182 106.143H161.039V113H154.182V106.143ZM154.182 99.2857H161.039V106.143H154.182V99.2857ZM154.182 92.4286H161.039V99.2857H154.182V92.4286ZM147.325 92.4286H154.182V99.2857H147.325V92.4286ZM147.325 99.2857H154.182V106.143H147.325V99.2857ZM147.325 106.143H154.182V113H147.325V106.143Z" fill="white"/>
</g>
<defs>
<clipPath id="clip0_33_25">
<rect width="254" height="254" fill="white"/>
</clipPath>
</defs>
</svg>
