<svg width="254" height="254" viewBox="0 0 254 254" fill="none" xmlns="http://www.w3.org/2000/svg">
<rect y="132" width="12" height="12" fill="#FFFAF8"/>
<rect y="121" width="12" height="12" fill="#FFFAF8"/>
<rect y="110" width="12" height="12" fill="#FFFAF8"/>
<rect x="11" y="143" width="12" height="12" fill="#FFFAF8"/>
<rect x="11" y="132" width="12" height="12" fill="#FFFAF8"/>
<rect x="11" y="121" width="12" height="12" fill="#FFFAF8"/>
<rect x="11" y="110" width="12" height="12" fill="#FFFAF8"/>
<rect x="11" y="99" width="12" height="12" fill="#FFFAF8"/>
<rect x="22" y="154" width="12" height="12" fill="#FFFAF8"/>
<rect x="22" y="143" width="12" height="12" fill="#FFFAF8"/>
<rect x="22" y="132" width="12" height="12" fill="#FFFAF8"/>
<rect x="22" y="121" width="12" height="12" fill="#FFFAF8"/>
<rect x="22" y="110" width="12" height="12" fill="#FFFAF8"/>
<rect x="22" y="99" width="12" height="12" fill="#FFFAF8"/>
<rect x="22" y="88" width="12" height="12" fill="#FFFAF8"/>
<rect x="33" y="165" width="12" height="12" fill="#FFFAF8"/>
<rect x="33" y="154" width="12" height="12" fill="#FFFAF8"/>
<rect x="33" y="143" width="12" height="12" fill="#FFFAF8"/>
<rect x="33" y="132" width="12" height="12" fill="#FFFAF8"/>
<rect x="33" y="121" width="12" height="12" fill="#FFFAF8"/>
<rect x="33" y="110" width="12" height="12" fill="#FFFAF8"/>
<rect x="33" y="99" width="12" height="12" fill="#FFFAF8"/>
<rect x="33" y="88" width="12" height="12" fill="#FFFAF8"/>
<rect x="33" y="77" width="12" height="12" fill="#FFFAF8"/>
<rect x="44" y="176" width="12" height="12" fill="#FFFAF8"/>
<rect x="44" y="165" width="12" height="12" fill="#FFFAF8"/>
<rect x="44" y="154" width="12" height="12" fill="#FFFAF8"/>
<rect x="44" y="143" width="12" height="12" fill="#FFFAF8"/>
<rect x="44" y="132" width="12" height="12" fill="#FFFAF8"/>
<rect x="44" y="121" width="12" height="12" fill="#FFFAF8"/>
<rect x="44" y="110" width="12" height="12" fill="#FFFAF8"/>
<rect x="44" y="99" width="12" height="12" fill="#FFFAF8"/>
<rect x="44" y="88" width="12" height="12" fill="#FFFAF8"/>
<rect x="44" y="77" width="12" height="12" fill="#FFFAF8"/>
<rect x="44" y="66" width="12" height="12" fill="#FFFAF8"/>
<rect x="55" y="187" width="12" height="12" fill="#FFFAF8"/>
<rect x="55" y="176" width="12" height="12" fill="#FFFAF8"/>
<rect x="55" y="165" width="12" height="12" fill="#FFFAF8"/>
<rect x="55" y="154" width="12" height="12" fill="#FFFAF8"/>
<rect x="55" y="143" width="12" height="12" fill="#FFFAF8"/>
<rect x="55" y="132" width="12" height="12" fill="#FFFAF8"/>
<rect x="55" y="110" width="12" height="12" fill="#FFFAF8"/>
<rect x="55" y="99" width="12" height="12" fill="#FFFAF8"/>
<rect x="55" y="88" width="12" height="12" fill="#FFFAF8"/>
<rect x="55" y="77" width="12" height="12" fill="#FFFAF8"/>
<rect x="55" y="66" width="12" height="12" fill="#FFFAF8"/>
<rect x="55" y="55" width="12" height="12" fill="#FFFAF8"/>
<rect x="66" y="198" width="12" height="12" fill="#FFFAF8"/>
<rect x="66" y="187" width="12" height="12" fill="#FFFAF8"/>
<rect x="66" y="176" width="12" height="12" fill="#FFFAF8"/>
<rect x="66" y="165" width="12" height="12" fill="#FFFAF8"/>
<rect x="66" y="154" width="12" height="12" fill="#FFFAF8"/>
<rect x="66" y="143" width="12" height="12" fill="#FFFAF8"/>
<rect x="66" y="99" width="12" height="12" fill="#FFFAF8"/>
<rect x="66" y="88" width="12" height="12" fill="#FFFAF8"/>
<rect x="66" y="77" width="12" height="12" fill="#FFFAF8"/>
<rect x="66" y="66" width="12" height="12" fill="#FFFAF8"/>
<rect x="66" y="55" width="12" height="12" fill="#FFFAF8"/>
<rect x="66" y="44" width="12" height="12" fill="#FFFAF8"/>
<rect x="77" y="198" width="12" height="12" fill="#FFFAF8"/>
<rect x="77" y="187" width="12" height="12" fill="#FFFAF8"/>
<rect x="77" y="176" width="12" height="12" fill="#FFFAF8"/>
<rect x="77" y="165" width="12" height="12" fill="#FFFAF8"/>
<rect x="77" y="154" width="12" height="12" fill="#FFFAF8"/>
<rect x="77" y="88" width="12" height="12" fill="#FFFAF8"/>
<rect x="77" y="77" width="12" height="12" fill="#FFFAF8"/>
<rect x="77" y="66" width="12" height="12" fill="#FFFAF8"/>
<rect x="77" y="55" width="12" height="12" fill="#FFFAF8"/>
<rect x="77" y="44" width="12" height="12" fill="#FFFAF8"/>
<rect x="88" y="198" width="12" height="12" fill="#FFFAF8"/>
<rect x="88" y="187" width="12" height="12" fill="#FFFAF8"/>
<rect x="88" y="176" width="12" height="12" fill="#FFFAF8"/>
<rect x="88" y="165" width="12" height="12" fill="#FFFAF8"/>
<rect x="88" y="77" width="12" height="12" fill="#FFFAF8"/>
<rect x="88" y="66" width="12" height="12" fill="#FFFAF8"/>
<rect x="88" y="55" width="12" height="12" fill="#FFFAF8"/>
<rect x="88" y="44" width="12" height="12" fill="#FFFAF8"/>
<rect x="99" y="187" width="12" height="12" fill="#FFFAF8"/>
<rect x="99" y="176" width="12" height="12" fill="#FFFAF8"/>
<rect x="99" y="66" width="12" height="12" fill="#FFFAF8"/>
<rect x="99" y="55" width="12" height="12" fill="#FFFAF8"/>
<rect x="143" y="187" width="12" height="12" fill="#FFFAF8"/>
<rect x="143" y="176" width="12" height="12" fill="#FFFAF8"/>
<rect x="143" y="66" width="12" height="12" fill="#FFFAF8"/>
<rect x="143" y="55" width="12" height="12" fill="#FFFAF8"/>
<rect x="154" y="198" width="12" height="12" fill="#FFFAF8"/>
<rect x="154" y="187" width="12" height="12" fill="#FFFAF8"/>
<rect x="154" y="176" width="12" height="12" fill="#FFFAF8"/>
<rect x="154" y="165" width="12" height="12" fill="#FFFAF8"/>
<rect x="154" y="77" width="12" height="12" fill="#FFFAF8"/>
<rect x="154" y="66" width="12" height="12" fill="#FFFAF8"/>
<rect x="154" y="55" width="12" height="12" fill="#FFFAF8"/>
<rect x="154" y="44" width="12" height="12" fill="#FFFAF8"/>
<rect x="165" y="198" width="12" height="12" fill="#FFFAF8"/>
<rect x="165" y="187" width="12" height="12" fill="#FFFAF8"/>
<rect x="165" y="176" width="12" height="12" fill="#FFFAF8"/>
<rect x="165" y="165" width="12" height="12" fill="#FFFAF8"/>
<rect x="165" y="154" width="12" height="12" fill="#FFFAF8"/>
<rect x="165" y="88" width="12" height="12" fill="#FFFAF8"/>
<rect x="165" y="77" width="12" height="12" fill="#FFFAF8"/>
<rect x="165" y="66" width="12" height="12" fill="#FFFAF8"/>
<rect x="165" y="55" width="12" height="12" fill="#FFFAF8"/>
<rect x="165" y="44" width="12" height="12" fill="#FFFAF8"/>
<rect x="176" y="198" width="12" height="12" fill="#FFFAF8"/>
<rect x="176" y="187" width="12" height="12" fill="#FFFAF8"/>
<rect x="176" y="176" width="12" height="12" fill="#FFFAF8"/>
<rect x="176" y="165" width="12" height="12" fill="#FFFAF8"/>
<rect x="176" y="154" width="12" height="12" fill="#FFFAF8"/>
<rect x="176" y="143" width="12" height="12" fill="#FFFAF8"/>
<rect x="176" y="99" width="12" height="12" fill="#FFFAF8"/>
<rect x="176" y="88" width="12" height="12" fill="#FFFAF8"/>
<rect x="176" y="77" width="12" height="12" fill="#FFFAF8"/>
<rect x="176" y="66" width="12" height="12" fill="#FFFAF8"/>
<rect x="176" y="55" width="12" height="12" fill="#FFFAF8"/>
<rect x="176" y="44" width="12" height="12" fill="#FFFAF8"/>
<rect x="187" y="187" width="12" height="12" fill="#FFFAF8"/>
<rect x="187" y="176" width="12" height="12" fill="#FFFAF8"/>
<rect x="187" y="165" width="12" height="12" fill="#FFFAF8"/>
<rect x="187" y="154" width="12" height="12" fill="#FFFAF8"/>
<rect x="187" y="143" width="12" height="12" fill="#FFFAF8"/>
<rect x="187" y="132" width="12" height="12" fill="#FFFAF8"/>
<rect x="187" y="110" width="12" height="12" fill="#FFFAF8"/>
<rect x="187" y="99" width="12" height="12" fill="#FFFAF8"/>
<rect x="187" y="88" width="12" height="12" fill="#FFFAF8"/>
<rect x="187" y="77" width="12" height="12" fill="#FFFAF8"/>
<rect x="187" y="66" width="12" height="12" fill="#FFFAF8"/>
<rect x="187" y="55" width="12" height="12" fill="#FFFAF8"/>
<rect x="198" y="176" width="12" height="12" fill="#FFFAF8"/>
<rect x="198" y="165" width="12" height="12" fill="#FFFAF8"/>
<rect x="198" y="154" width="12" height="12" fill="#FFFAF8"/>
<rect x="198" y="143" width="12" height="12" fill="#FFFAF8"/>
<rect x="198" y="132" width="12" height="12" fill="#FFFAF8"/>
<rect x="198" y="121" width="12" height="12" fill="#FFFAF8"/>
<rect x="198" y="110" width="12" height="12" fill="#FFFAF8"/>
<rect x="198" y="99" width="12" height="12" fill="#FFFAF8"/>
<rect x="198" y="88" width="12" height="12" fill="#FFFAF8"/>
<rect x="198" y="77" width="12" height="12" fill="#FFFAF8"/>
<rect x="198" y="66" width="12" height="12" fill="#FFFAF8"/>
<rect x="209" y="165" width="12" height="12" fill="#FFFAF8"/>
<rect x="209" y="154" width="12" height="12" fill="#FFFAF8"/>
<rect x="209" y="143" width="12" height="12" fill="#FFFAF8"/>
<rect x="209" y="132" width="12" height="12" fill="#FFFAF8"/>
<rect x="209" y="121" width="12" height="12" fill="#FFFAF8"/>
<rect x="209" y="110" width="12" height="12" fill="#FFFAF8"/>
<rect x="209" y="99" width="12" height="12" fill="#FFFAF8"/>
<rect x="209" y="88" width="12" height="12" fill="#FFFAF8"/>
<rect x="209" y="77" width="12" height="12" fill="#FFFAF8"/>
<rect x="220" y="154" width="12" height="12" fill="#FFFAF8"/>
<rect x="220" y="143" width="12" height="12" fill="#FFFAF8"/>
<rect x="220" y="132" width="12" height="12" fill="#FFFAF8"/>
<rect x="220" y="121" width="12" height="12" fill="#FFFAF8"/>
<rect x="220" y="110" width="12" height="12" fill="#FFFAF8"/>
<rect x="220" y="99" width="12" height="12" fill="#FFFAF8"/>
<rect x="220" y="88" width="12" height="12" fill="#FFFAF8"/>
<rect x="231" y="143" width="12" height="12" fill="#FFFAF8"/>
<rect x="231" y="132" width="12" height="12" fill="#FFFAF8"/>
<rect x="231" y="121" width="12" height="12" fill="#FFFAF8"/>
<rect x="231" y="110" width="12" height="12" fill="#FFFAF8"/>
<rect x="231" y="99" width="12" height="12" fill="#FFFAF8"/>
<rect x="242" y="132" width="12" height="12" fill="#FFFAF8"/>
<rect x="242" y="121" width="12" height="12" fill="#FFFAF8"/>
<rect x="242" y="110" width="12" height="12" fill="#FFFAF8"/>
</svg>
