<svg width="254" height="254" viewBox="0 0 254 254" fill="none" xmlns="http://www.w3.org/2000/svg">
<rect x="22" y="209" width="12" height="12" fill="white"/>
<rect x="22" y="198" width="12" height="12" fill="white"/>
<rect x="22" y="187" width="12" height="12" fill="white"/>
<rect x="22" y="154" width="12" height="12" fill="white"/>
<rect x="22" y="143" width="12" height="12" fill="white"/>
<rect x="22" y="132" width="12" height="12" fill="white"/>
<rect x="22" y="99" width="12" height="12" fill="white"/>
<rect x="22" y="88" width="12" height="12" fill="white"/>
<rect x="22" y="77" width="12" height="12" fill="white"/>
<rect x="22" y="44" width="12" height="12" fill="white"/>
<rect x="22" y="33" width="12" height="12" fill="white"/>
<rect x="33" y="220" width="12" height="12" fill="white"/>
<rect x="33" y="209" width="12" height="12" fill="white"/>
<rect x="33" y="198" width="12" height="12" fill="white"/>
<rect x="33" y="165" width="12" height="12" fill="white"/>
<rect x="33" y="154" width="12" height="12" fill="white"/>
<rect x="33" y="143" width="12" height="12" fill="white"/>
<rect x="33" y="110" width="12" height="12" fill="white"/>
<rect x="33" y="99" width="12" height="12" fill="white"/>
<rect x="33" y="88" width="12" height="12" fill="white"/>
<rect x="33" y="55" width="12" height="12" fill="white"/>
<rect x="33" y="44" width="12" height="12" fill="white"/>
<rect x="33" y="33" width="12" height="12" fill="white"/>
<rect x="33" y="22" width="12" height="12" fill="white"/>
<rect x="44" y="220" width="12" height="12" fill="white"/>
<rect x="44" y="209" width="12" height="12" fill="white"/>
<rect x="44" y="198" width="12" height="12" fill="white"/>
<rect x="44" y="176" width="12" height="12" fill="white"/>
<rect x="44" y="165" width="12" height="12" fill="white"/>
<rect x="44" y="154" width="12" height="12" fill="white"/>
<rect x="44" y="143" width="12" height="12" fill="white"/>
<rect x="44" y="121" width="12" height="12" fill="white"/>
<rect x="44" y="110" width="12" height="12" fill="white"/>
<rect x="44" y="99" width="12" height="12" fill="white"/>
<rect x="44" y="88" width="12" height="12" fill="white"/>
<rect x="44" y="66" width="12" height="12" fill="white"/>
<rect x="44" y="55" width="12" height="12" fill="white"/>
<rect x="44" y="44" width="12" height="12" fill="white"/>
<rect x="44" y="33" width="12" height="12" fill="white"/>
<rect x="44" y="22" width="12" height="12" fill="white"/>
<rect x="55" y="231" width="12" height="12" fill="white"/>
<rect x="55" y="220" width="12" height="12" fill="white"/>
<rect x="55" y="209" width="12" height="12" fill="white"/>
<rect x="55" y="176" width="12" height="12" fill="white"/>
<rect x="55" y="165" width="12" height="12" fill="white"/>
<rect x="55" y="154" width="12" height="12" fill="white"/>
<rect x="55" y="121" width="12" height="12" fill="white"/>
<rect x="55" y="110" width="12" height="12" fill="white"/>
<rect x="55" y="99" width="12" height="12" fill="white"/>
<rect x="55" y="66" width="12" height="12" fill="white"/>
<rect x="55" y="55" width="12" height="12" fill="white"/>
<rect x="55" y="44" width="12" height="12" fill="white"/>
<rect x="55" y="33" width="12" height="12" fill="white"/>
<rect x="55" y="22" width="12" height="12" fill="white"/>
<rect x="55" y="11" width="12" height="12" fill="white"/>
<rect x="44" y="11" width="12" height="12" fill="white"/>
<rect x="66" y="231" width="12" height="12" fill="white"/>
<rect x="66" y="220" width="12" height="12" fill="white"/>
<rect x="66" y="209" width="12" height="12" fill="white"/>
<rect x="66" y="176" width="12" height="12" fill="white"/>
<rect x="66" y="165" width="12" height="12" fill="white"/>
<rect x="66" y="154" width="12" height="12" fill="white"/>
<rect x="66" y="121" width="12" height="12" fill="white"/>
<rect x="66" y="110" width="12" height="12" fill="white"/>
<rect x="66" y="99" width="12" height="12" fill="white"/>
<rect x="66" y="66" width="12" height="12" fill="white"/>
<rect x="66" y="55" width="12" height="12" fill="white"/>
<rect x="66" y="44" width="12" height="12" fill="white"/>
<rect x="66" y="33" width="12" height="12" fill="white"/>
<rect x="66" y="22" width="12" height="12" fill="white"/>
<rect x="66" y="11" width="12" height="12" fill="white"/>
<rect x="77" y="242" width="12" height="12" fill="white"/>
<rect x="77" y="231" width="12" height="12" fill="white"/>
<rect x="77" y="220" width="12" height="12" fill="white"/>
<rect x="77" y="209" width="12" height="12" fill="white"/>
<rect x="77" y="187" width="12" height="12" fill="white"/>
<rect x="77" y="176" width="12" height="12" fill="white"/>
<rect x="77" y="165" width="12" height="12" fill="white"/>
<rect x="77" y="154" width="12" height="12" fill="white"/>
<rect x="77" y="132" width="12" height="12" fill="white"/>
<rect x="77" y="121" width="12" height="12" fill="white"/>
<rect x="77" y="110" width="12" height="12" fill="white"/>
<rect x="77" y="99" width="12" height="12" fill="white"/>
<rect x="77" y="77" width="12" height="12" fill="white"/>
<rect x="77" y="66" width="12" height="12" fill="white"/>
<rect x="77" y="55" width="12" height="12" fill="white"/>
<rect x="77" y="44" width="12" height="12" fill="white"/>
<rect x="77" y="33" width="12" height="12" fill="white"/>
<rect x="77" y="22" width="12" height="12" fill="white"/>
<rect x="77" y="11" width="12" height="12" fill="white"/>
<rect x="77" width="12" height="12" fill="white"/>
<rect x="66" width="12" height="12" fill="white"/>
<rect x="88" y="242" width="12" height="12" fill="white"/>
<rect x="88" y="231" width="12" height="12" fill="white"/>
<rect x="88" y="220" width="12" height="12" fill="white"/>
<rect x="88" y="209" width="12" height="12" fill="white"/>
<rect x="88" y="187" width="12" height="12" fill="white"/>
<rect x="88" y="176" width="12" height="12" fill="white"/>
<rect x="88" y="165" width="12" height="12" fill="white"/>
<rect x="88" y="154" width="12" height="12" fill="white"/>
<rect x="88" y="132" width="12" height="12" fill="white"/>
<rect x="88" y="121" width="12" height="12" fill="white"/>
<rect x="88" y="110" width="12" height="12" fill="white"/>
<rect x="88" y="99" width="12" height="12" fill="white"/>
<rect x="88" y="77" width="12" height="12" fill="white"/>
<rect x="88" y="66" width="12" height="12" fill="white"/>
<rect x="88" y="55" width="12" height="12" fill="white"/>
<rect x="88" y="44" width="12" height="12" fill="white"/>
<rect x="88" y="33" width="12" height="12" fill="white"/>
<rect x="88" y="22" width="12" height="12" fill="white"/>
<rect x="88" y="11" width="12" height="12" fill="white"/>
<rect x="88" width="12" height="12" fill="white"/>
<rect x="99" y="242" width="12" height="12" fill="white"/>
<rect x="99" y="231" width="12" height="12" fill="white"/>
<rect x="99" y="220" width="12" height="12" fill="white"/>
<rect x="99" y="209" width="12" height="12" fill="white"/>
<rect x="99" y="187" width="12" height="12" fill="white"/>
<rect x="99" y="176" width="12" height="12" fill="white"/>
<rect x="99" y="165" width="12" height="12" fill="white"/>
<rect x="99" y="154" width="12" height="12" fill="white"/>
<rect x="99" y="132" width="12" height="12" fill="white"/>
<rect x="99" y="121" width="12" height="12" fill="white"/>
<rect x="99" y="110" width="12" height="12" fill="white"/>
<rect x="99" y="99" width="12" height="12" fill="white"/>
<rect x="99" y="77" width="12" height="12" fill="white"/>
<rect x="99" y="66" width="12" height="12" fill="white"/>
<rect x="99" y="55" width="12" height="12" fill="white"/>
<rect x="99" y="44" width="12" height="12" fill="white"/>
<rect x="99" y="33" width="12" height="12" fill="white"/>
<rect x="99" y="22" width="12" height="12" fill="white"/>
<rect x="99" y="11" width="12" height="12" fill="white"/>
<rect x="99" width="12" height="12" fill="white"/>
<rect x="110" y="242" width="12" height="12" fill="white"/>
<rect x="110" y="231" width="12" height="12" fill="white"/>
<rect x="110" y="220" width="12" height="12" fill="white"/>
<rect x="110" y="209" width="12" height="12" fill="white"/>
<rect x="110" y="187" width="12" height="12" fill="white"/>
<rect x="110" y="176" width="12" height="12" fill="white"/>
<rect x="110" y="165" width="12" height="12" fill="white"/>
<rect x="110" y="154" width="12" height="12" fill="white"/>
<rect x="110" y="132" width="12" height="12" fill="white"/>
<rect x="110" y="121" width="12" height="12" fill="white"/>
<rect x="110" y="110" width="12" height="12" fill="white"/>
<rect x="110" y="99" width="12" height="12" fill="white"/>
<rect x="110" y="77" width="12" height="12" fill="white"/>
<rect x="110" y="66" width="12" height="12" fill="white"/>
<rect x="110" y="55" width="12" height="12" fill="white"/>
<rect x="110" y="44" width="12" height="12" fill="white"/>
<rect x="110" y="33" width="12" height="12" fill="white"/>
<rect x="110" y="22" width="12" height="12" fill="white"/>
<rect x="110" y="11" width="12" height="12" fill="white"/>
<rect x="110" width="12" height="12" fill="white"/>
<rect x="121" y="242" width="12" height="12" fill="white"/>
<rect x="121" y="231" width="12" height="12" fill="white"/>
<rect x="121" y="220" width="12" height="12" fill="white"/>
<rect x="121" y="209" width="12" height="12" fill="white"/>
<rect x="121" y="187" width="12" height="12" fill="white"/>
<rect x="121" y="176" width="12" height="12" fill="white"/>
<rect x="121" y="165" width="12" height="12" fill="white"/>
<rect x="121" y="154" width="12" height="12" fill="white"/>
<rect x="121" y="132" width="12" height="12" fill="white"/>
<rect x="121" y="121" width="12" height="12" fill="white"/>
<rect x="121" y="110" width="12" height="12" fill="white"/>
<rect x="121" y="99" width="12" height="12" fill="white"/>
<rect x="121" y="77" width="12" height="12" fill="white"/>
<rect x="121" y="66" width="12" height="12" fill="white"/>
<rect x="121" y="55" width="12" height="12" fill="white"/>
<rect x="121" y="44" width="12" height="12" fill="white"/>
<rect x="121" y="33" width="12" height="12" fill="white"/>
<rect x="121" y="22" width="12" height="12" fill="white"/>
<rect x="121" y="11" width="12" height="12" fill="white"/>
<rect x="121" width="12" height="12" fill="white"/>
<rect x="132" y="242" width="12" height="12" fill="white"/>
<rect x="132" y="231" width="12" height="12" fill="white"/>
<rect x="132" y="220" width="12" height="12" fill="white"/>
<rect x="132" y="209" width="12" height="12" fill="white"/>
<rect x="132" y="187" width="12" height="12" fill="white"/>
<rect x="132" y="176" width="12" height="12" fill="white"/>
<rect x="132" y="165" width="12" height="12" fill="white"/>
<rect x="132" y="154" width="12" height="12" fill="white"/>
<rect x="132" y="132" width="12" height="12" fill="white"/>
<rect x="132" y="121" width="12" height="12" fill="white"/>
<rect x="132" y="110" width="12" height="12" fill="white"/>
<rect x="132" y="99" width="12" height="12" fill="white"/>
<rect x="132" y="77" width="12" height="12" fill="white"/>
<rect x="132" y="66" width="12" height="12" fill="white"/>
<rect x="132" y="55" width="12" height="12" fill="white"/>
<rect x="132" y="44" width="12" height="12" fill="white"/>
<rect x="132" y="33" width="12" height="12" fill="white"/>
<rect x="132" y="22" width="12" height="12" fill="white"/>
<rect x="132" y="11" width="12" height="12" fill="white"/>
<rect x="132" width="12" height="12" fill="white"/>
<rect x="143" y="242" width="12" height="12" fill="white"/>
<rect x="143" y="231" width="12" height="12" fill="white"/>
<rect x="143" y="220" width="12" height="12" fill="white"/>
<rect x="143" y="209" width="12" height="12" fill="white"/>
<rect x="143" y="187" width="12" height="12" fill="white"/>
<rect x="143" y="176" width="12" height="12" fill="white"/>
<rect x="143" y="165" width="12" height="12" fill="white"/>
<rect x="143" y="154" width="12" height="12" fill="white"/>
<rect x="143" y="132" width="12" height="12" fill="white"/>
<rect x="143" y="121" width="12" height="12" fill="white"/>
<rect x="143" y="110" width="12" height="12" fill="white"/>
<rect x="143" y="99" width="12" height="12" fill="white"/>
<rect x="143" y="77" width="12" height="12" fill="white"/>
<rect x="143" y="66" width="12" height="12" fill="white"/>
<rect x="143" y="55" width="12" height="12" fill="white"/>
<rect x="143" y="44" width="12" height="12" fill="white"/>
<rect x="143" y="33" width="12" height="12" fill="white"/>
<rect x="143" y="22" width="12" height="12" fill="white"/>
<rect x="143" y="11" width="12" height="12" fill="white"/>
<rect x="143" width="12" height="12" fill="white"/>
<rect x="154" y="242" width="12" height="12" fill="white"/>
<rect x="154" y="231" width="12" height="12" fill="white"/>
<rect x="154" y="220" width="12" height="12" fill="white"/>
<rect x="154" y="209" width="12" height="12" fill="white"/>
<rect x="154" y="187" width="12" height="12" fill="white"/>
<rect x="154" y="176" width="12" height="12" fill="white"/>
<rect x="154" y="165" width="12" height="12" fill="white"/>
<rect x="154" y="154" width="12" height="12" fill="white"/>
<rect x="154" y="132" width="12" height="12" fill="white"/>
<rect x="154" y="121" width="12" height="12" fill="white"/>
<rect x="154" y="110" width="12" height="12" fill="white"/>
<rect x="154" y="99" width="12" height="12" fill="white"/>
<rect x="154" y="77" width="12" height="12" fill="white"/>
<rect x="154" y="66" width="12" height="12" fill="white"/>
<rect x="154" y="55" width="12" height="12" fill="white"/>
<rect x="154" y="44" width="12" height="12" fill="white"/>
<rect x="154" y="33" width="12" height="12" fill="white"/>
<rect x="154" y="22" width="12" height="12" fill="white"/>
<rect x="154" y="11" width="12" height="12" fill="white"/>
<rect x="154" width="12" height="12" fill="white"/>
<rect x="165" y="242" width="12" height="12" fill="white"/>
<rect x="165" y="231" width="12" height="12" fill="white"/>
<rect x="165" y="220" width="12" height="12" fill="white"/>
<rect x="165" y="209" width="12" height="12" fill="white"/>
<rect x="165" y="187" width="12" height="12" fill="white"/>
<rect x="165" y="176" width="12" height="12" fill="white"/>
<rect x="165" y="165" width="12" height="12" fill="white"/>
<rect x="165" y="154" width="12" height="12" fill="white"/>
<rect x="165" y="132" width="12" height="12" fill="white"/>
<rect x="165" y="121" width="12" height="12" fill="white"/>
<rect x="165" y="110" width="12" height="12" fill="white"/>
<rect x="165" y="99" width="12" height="12" fill="white"/>
<rect x="165" y="77" width="12" height="12" fill="white"/>
<rect x="165" y="66" width="12" height="12" fill="white"/>
<rect x="165" y="55" width="12" height="12" fill="white"/>
<rect x="165" y="44" width="12" height="12" fill="white"/>
<rect x="165" y="33" width="12" height="12" fill="white"/>
<rect x="165" y="22" width="12" height="12" fill="white"/>
<rect x="165" y="11" width="12" height="12" fill="white"/>
<rect x="165" width="12" height="12" fill="white"/>
<rect x="176" width="12" height="12" fill="white"/>
<rect x="176" y="231" width="12" height="12" fill="white"/>
<rect x="176" y="220" width="12" height="12" fill="white"/>
<rect x="176" y="209" width="12" height="12" fill="white"/>
<rect x="176" y="176" width="12" height="12" fill="white"/>
<rect x="176" y="165" width="12" height="12" fill="white"/>
<rect x="176" y="154" width="12" height="12" fill="white"/>
<rect x="176" y="121" width="12" height="12" fill="white"/>
<rect x="176" y="110" width="12" height="12" fill="white"/>
<rect x="176" y="99" width="12" height="12" fill="white"/>
<rect x="176" y="66" width="12" height="12" fill="white"/>
<rect x="176" y="55" width="12" height="12" fill="white"/>
<rect x="176" y="44" width="12" height="12" fill="white"/>
<rect x="176" y="33" width="12" height="12" fill="white"/>
<rect x="176" y="22" width="12" height="12" fill="white"/>
<rect x="176" y="11" width="12" height="12" fill="white"/>
<rect x="187" y="231" width="12" height="12" fill="white"/>
<rect x="187" y="220" width="12" height="12" fill="white"/>
<rect x="187" y="209" width="12" height="12" fill="white"/>
<rect x="187" y="198" width="12" height="12" fill="white"/>
<rect x="187" y="176" width="12" height="12" fill="white"/>
<rect x="187" y="165" width="12" height="12" fill="white"/>
<rect x="187" y="154" width="12" height="12" fill="white"/>
<rect x="187" y="121" width="12" height="12" fill="white"/>
<rect x="187" y="110" width="12" height="12" fill="white"/>
<rect x="187" y="99" width="12" height="12" fill="white"/>
<rect x="187" y="66" width="12" height="12" fill="white"/>
<rect x="187" y="55" width="12" height="12" fill="white"/>
<rect x="187" y="44" width="12" height="12" fill="white"/>
<rect x="187" y="33" width="12" height="12" fill="white"/>
<rect x="187" y="22" width="12" height="12" fill="white"/>
<rect x="187" y="11" width="12" height="12" fill="white"/>
<rect x="198" y="231" width="12" height="12" fill="white"/>
<rect x="198" y="220" width="12" height="12" fill="white"/>
<rect x="198" y="209" width="12" height="12" fill="white"/>
<rect x="198" y="198" width="12" height="12" fill="white"/>
<rect x="198" y="176" width="12" height="12" fill="white"/>
<rect x="198" y="165" width="12" height="12" fill="white"/>
<rect x="198" y="154" width="12" height="12" fill="white"/>
<rect x="198" y="143" width="12" height="12" fill="white"/>
<rect x="198" y="121" width="12" height="12" fill="white"/>
<rect x="198" y="110" width="12" height="12" fill="white"/>
<rect x="198" y="99" width="12" height="12" fill="white"/>
<rect x="198" y="88" width="12" height="12" fill="white"/>
<rect x="198" y="66" width="12" height="12" fill="white"/>
<rect x="198" y="55" width="12" height="12" fill="white"/>
<rect x="198" y="44" width="12" height="12" fill="white"/>
<rect x="198" y="33" width="12" height="12" fill="white"/>
<rect x="198" y="22" width="12" height="12" fill="white"/>
<rect x="198" y="11" width="12" height="12" fill="white"/>
<rect x="209" y="220" width="12" height="12" fill="white"/>
<rect x="209" y="209" width="12" height="12" fill="white"/>
<rect x="209" y="198" width="12" height="12" fill="white"/>
<rect x="209" y="165" width="12" height="12" fill="white"/>
<rect x="209" y="154" width="12" height="12" fill="white"/>
<rect x="209" y="143" width="12" height="12" fill="white"/>
<rect x="209" y="110" width="12" height="12" fill="white"/>
<rect x="209" y="99" width="12" height="12" fill="white"/>
<rect x="209" y="88" width="12" height="12" fill="white"/>
<rect x="209" y="55" width="12" height="12" fill="white"/>
<rect x="209" y="44" width="12" height="12" fill="white"/>
<rect x="209" y="33" width="12" height="12" fill="white"/>
<rect x="209" y="22" width="12" height="12" fill="white"/>
<rect x="220" y="209" width="12" height="12" fill="white"/>
<rect x="220" y="198" width="12" height="12" fill="white"/>
<rect x="220" y="187" width="12" height="12" fill="white"/>
<rect x="220" y="154" width="12" height="12" fill="white"/>
<rect x="220" y="143" width="12" height="12" fill="white"/>
<rect x="220" y="132" width="12" height="12" fill="white"/>
<rect x="220" y="99" width="12" height="12" fill="white"/>
<rect x="220" y="88" width="12" height="12" fill="white"/>
<rect x="220" y="77" width="12" height="12" fill="white"/>
<rect x="220" y="44" width="12" height="12" fill="white"/>
<rect x="220" y="33" width="12" height="12" fill="white"/>
</svg>
