<svg width="254" height="254" viewBox="0 0 254 254" fill="none" xmlns="http://www.w3.org/2000/svg">
<rect x="11" y="209" width="12" height="12" fill="white"/>
<rect x="11" y="198" width="12" height="12" fill="white"/>
<rect x="11" y="187" width="12" height="12" fill="white"/>
<rect x="11" y="176" width="12" height="12" fill="white"/>
<rect x="11" y="165" width="12" height="12" fill="white"/>
<rect x="11" y="154" width="12" height="12" fill="white"/>
<rect x="11" y="88" width="12" height="12" fill="white"/>
<rect x="11" y="77" width="12" height="12" fill="white"/>
<rect x="11" y="66" width="12" height="12" fill="white"/>
<rect x="11" y="55" width="12" height="12" fill="white"/>
<rect x="11" y="44" width="12" height="12" fill="white"/>
<rect x="11" y="33" width="12" height="12" fill="white"/>
<rect x="22" y="220" width="12" height="12" fill="white"/>
<rect x="22" y="209" width="12" height="12" fill="white"/>
<rect x="22" y="198" width="12" height="12" fill="white"/>
<rect x="22" y="187" width="12" height="12" fill="white"/>
<rect x="22" y="176" width="12" height="12" fill="white"/>
<rect x="22" y="165" width="12" height="12" fill="white"/>
<rect x="22" y="154" width="12" height="12" fill="white"/>
<rect x="22" y="143" width="12" height="12" fill="white"/>
<rect x="22" y="99" width="12" height="12" fill="white"/>
<rect x="22" y="88" width="12" height="12" fill="white"/>
<rect x="22" y="77" width="12" height="12" fill="white"/>
<rect x="22" y="66" width="12" height="12" fill="white"/>
<rect x="22" y="55" width="12" height="12" fill="white"/>
<rect x="22" y="44" width="12" height="12" fill="white"/>
<rect x="22" y="33" width="12" height="12" fill="white"/>
<rect x="22" y="22" width="12" height="12" fill="white"/>
<rect x="33" y="231" width="12" height="12" fill="white"/>
<rect x="33" y="220" width="12" height="12" fill="white"/>
<rect x="33" y="143" width="12" height="12" fill="white"/>
<rect x="33" y="132" width="12" height="12" fill="white"/>
<rect x="33" y="110" width="12" height="12" fill="white"/>
<rect x="33" y="99" width="12" height="12" fill="white"/>
<rect x="33" y="22" width="12" height="12" fill="white"/>
<rect x="33" y="11" width="12" height="12" fill="white"/>
<rect x="44" y="231" width="12" height="12" fill="white"/>
<rect x="44" y="220" width="12" height="12" fill="white"/>
<rect x="44" y="143" width="12" height="12" fill="white"/>
<rect x="44" y="132" width="12" height="12" fill="white"/>
<rect x="44" y="110" width="12" height="12" fill="white"/>
<rect x="44" y="99" width="12" height="12" fill="white"/>
<rect x="44" y="22" width="12" height="12" fill="white"/>
<rect x="44" y="11" width="12" height="12" fill="white"/>
<rect x="55" y="231" width="12" height="12" fill="white"/>
<rect x="55" y="220" width="12" height="12" fill="white"/>
<rect x="55" y="187" width="12" height="12" fill="white"/>
<rect x="55" y="176" width="12" height="12" fill="white"/>
<rect x="55" y="143" width="12" height="12" fill="white"/>
<rect x="55" y="132" width="12" height="12" fill="white"/>
<rect x="55" y="110" width="12" height="12" fill="white"/>
<rect x="55" y="99" width="12" height="12" fill="white"/>
<rect x="55" y="66" width="12" height="12" fill="white"/>
<rect x="55" y="55" width="12" height="12" fill="white"/>
<rect x="55" y="22" width="12" height="12" fill="white"/>
<rect x="55" y="11" width="12" height="12" fill="white"/>
<rect x="66" y="231" width="12" height="12" fill="white"/>
<rect x="66" y="220" width="12" height="12" fill="white"/>
<rect x="66" y="187" width="12" height="12" fill="white"/>
<rect x="66" y="176" width="12" height="12" fill="white"/>
<rect x="66" y="143" width="12" height="12" fill="white"/>
<rect x="66" y="132" width="12" height="12" fill="white"/>
<rect x="66" y="110" width="12" height="12" fill="white"/>
<rect x="66" y="99" width="12" height="12" fill="white"/>
<rect x="66" y="66" width="12" height="12" fill="white"/>
<rect x="66" y="55" width="12" height="12" fill="white"/>
<rect x="66" y="22" width="12" height="12" fill="white"/>
<rect x="66" y="11" width="12" height="12" fill="white"/>
<rect x="77" y="231" width="12" height="12" fill="white"/>
<rect x="77" y="220" width="12" height="12" fill="white"/>
<rect x="77" y="143" width="12" height="12" fill="white"/>
<rect x="77" y="132" width="12" height="12" fill="white"/>
<rect x="77" y="110" width="12" height="12" fill="white"/>
<rect x="77" y="99" width="12" height="12" fill="white"/>
<rect x="77" y="22" width="12" height="12" fill="white"/>
<rect x="77" y="11" width="12" height="12" fill="white"/>
<rect x="88" y="231" width="12" height="12" fill="white"/>
<rect x="88" y="220" width="12" height="12" fill="white"/>
<rect x="88" y="143" width="12" height="12" fill="white"/>
<rect x="88" y="132" width="12" height="12" fill="white"/>
<rect x="88" y="110" width="12" height="12" fill="white"/>
<rect x="88" y="99" width="12" height="12" fill="white"/>
<rect x="88" y="22" width="12" height="12" fill="white"/>
<rect x="88" y="11" width="12" height="12" fill="white"/>
<rect x="99" y="231" width="12" height="12" fill="white"/>
<rect x="99" y="220" width="12" height="12" fill="white"/>
<rect x="99" y="143" width="12" height="12" fill="white"/>
<rect x="99" y="132" width="12" height="12" fill="white"/>
<rect x="99" y="110" width="12" height="12" fill="white"/>
<rect x="99" y="99" width="12" height="12" fill="white"/>
<rect x="99" y="22" width="12" height="12" fill="white"/>
<rect x="99" y="11" width="12" height="12" fill="white"/>
<rect x="110" y="231" width="12" height="12" fill="white"/>
<rect x="110" y="220" width="12" height="12" fill="white"/>
<rect x="110" y="143" width="12" height="12" fill="white"/>
<rect x="110" y="132" width="12" height="12" fill="white"/>
<rect x="110" y="110" width="12" height="12" fill="white"/>
<rect x="110" y="99" width="12" height="12" fill="white"/>
<rect x="110" y="22" width="12" height="12" fill="white"/>
<rect x="110" y="11" width="12" height="12" fill="white"/>
<rect x="121" y="231" width="12" height="12" fill="white"/>
<rect x="121" y="220" width="12" height="12" fill="white"/>
<rect x="121" y="143" width="12" height="12" fill="white"/>
<rect x="121" y="132" width="12" height="12" fill="white"/>
<rect x="121" y="110" width="12" height="12" fill="white"/>
<rect x="121" y="99" width="12" height="12" fill="white"/>
<rect x="121" y="22" width="12" height="12" fill="white"/>
<rect x="121" y="11" width="12" height="12" fill="white"/>
<rect x="132" y="231" width="12" height="12" fill="white"/>
<rect x="132" y="220" width="12" height="12" fill="white"/>
<rect x="132" y="143" width="12" height="12" fill="white"/>
<rect x="132" y="132" width="12" height="12" fill="white"/>
<rect x="132" y="110" width="12" height="12" fill="white"/>
<rect x="132" y="99" width="12" height="12" fill="white"/>
<rect x="132" y="22" width="12" height="12" fill="white"/>
<rect x="132" y="11" width="12" height="12" fill="white"/>
<rect x="143" y="231" width="12" height="12" fill="white"/>
<rect x="143" y="220" width="12" height="12" fill="white"/>
<rect x="143" y="143" width="12" height="12" fill="white"/>
<rect x="143" y="132" width="12" height="12" fill="white"/>
<rect x="143" y="110" width="12" height="12" fill="white"/>
<rect x="143" y="99" width="12" height="12" fill="white"/>
<rect x="143" y="22" width="12" height="12" fill="white"/>
<rect x="143" y="11" width="12" height="12" fill="white"/>
<rect x="154" y="231" width="12" height="12" fill="white"/>
<rect x="154" y="220" width="12" height="12" fill="white"/>
<rect x="154" y="143" width="12" height="12" fill="white"/>
<rect x="154" y="132" width="12" height="12" fill="white"/>
<rect x="154" y="110" width="12" height="12" fill="white"/>
<rect x="154" y="99" width="12" height="12" fill="white"/>
<rect x="154" y="22" width="12" height="12" fill="white"/>
<rect x="154" y="11" width="12" height="12" fill="white"/>
<rect x="165" y="231" width="12" height="12" fill="white"/>
<rect x="165" y="220" width="12" height="12" fill="white"/>
<rect x="165" y="143" width="12" height="12" fill="white"/>
<rect x="165" y="132" width="12" height="12" fill="white"/>
<rect x="165" y="110" width="12" height="12" fill="white"/>
<rect x="165" y="99" width="12" height="12" fill="white"/>
<rect x="165" y="22" width="12" height="12" fill="white"/>
<rect x="165" y="11" width="12" height="12" fill="white"/>
<rect x="176" y="231" width="12" height="12" fill="white"/>
<rect x="176" y="220" width="12" height="12" fill="white"/>
<rect x="176" y="143" width="12" height="12" fill="white"/>
<rect x="176" y="132" width="12" height="12" fill="white"/>
<rect x="176" y="110" width="12" height="12" fill="white"/>
<rect x="176" y="99" width="12" height="12" fill="white"/>
<rect x="176" y="22" width="12" height="12" fill="white"/>
<rect x="176" y="11" width="12" height="12" fill="white"/>
<rect x="187" y="231" width="12" height="12" fill="white"/>
<rect x="187" y="220" width="12" height="12" fill="white"/>
<rect x="187" y="143" width="12" height="12" fill="white"/>
<rect x="187" y="132" width="12" height="12" fill="white"/>
<rect x="187" y="110" width="12" height="12" fill="white"/>
<rect x="187" y="99" width="12" height="12" fill="white"/>
<rect x="187" y="22" width="12" height="12" fill="white"/>
<rect x="187" y="11" width="12" height="12" fill="white"/>
<rect x="198" y="231" width="12" height="12" fill="white"/>
<rect x="198" y="220" width="12" height="12" fill="white"/>
<rect x="198" y="143" width="12" height="12" fill="white"/>
<rect x="198" y="132" width="12" height="12" fill="white"/>
<rect x="198" y="110" width="12" height="12" fill="white"/>
<rect x="198" y="99" width="12" height="12" fill="white"/>
<rect x="198" y="22" width="12" height="12" fill="white"/>
<rect x="198" y="11" width="12" height="12" fill="white"/>
<rect x="209" y="231" width="12" height="12" fill="white"/>
<rect x="209" y="220" width="12" height="12" fill="white"/>
<rect x="209" y="143" width="12" height="12" fill="white"/>
<rect x="209" y="132" width="12" height="12" fill="white"/>
<rect x="209" y="110" width="12" height="12" fill="white"/>
<rect x="209" y="99" width="12" height="12" fill="white"/>
<rect x="209" y="22" width="12" height="12" fill="white"/>
<rect x="209" y="11" width="12" height="12" fill="white"/>
<rect x="220" y="220" width="12" height="12" fill="white"/>
<rect x="220" y="209" width="12" height="12" fill="white"/>
<rect x="220" y="198" width="12" height="12" fill="white"/>
<rect x="220" y="187" width="12" height="12" fill="white"/>
<rect x="220" y="176" width="12" height="12" fill="white"/>
<rect x="220" y="165" width="12" height="12" fill="white"/>
<rect x="220" y="154" width="12" height="12" fill="white"/>
<rect x="220" y="143" width="12" height="12" fill="white"/>
<rect x="220" y="99" width="12" height="12" fill="white"/>
<rect x="220" y="88" width="12" height="12" fill="white"/>
<rect x="220" y="77" width="12" height="12" fill="white"/>
<rect x="220" y="66" width="12" height="12" fill="white"/>
<rect x="220" y="55" width="12" height="12" fill="white"/>
<rect x="220" y="44" width="12" height="12" fill="white"/>
<rect x="220" y="33" width="12" height="12" fill="white"/>
<rect x="220" y="22" width="12" height="12" fill="white"/>
<rect x="231" y="209" width="12" height="12" fill="white"/>
<rect x="231" y="198" width="12" height="12" fill="white"/>
<rect x="231" y="187" width="12" height="12" fill="white"/>
<rect x="231" y="176" width="12" height="12" fill="white"/>
<rect x="231" y="165" width="12" height="12" fill="white"/>
<rect x="231" y="154" width="12" height="12" fill="white"/>
<rect x="231" y="88" width="12" height="12" fill="white"/>
<rect x="231" y="77" width="12" height="12" fill="white"/>
<rect x="231" y="66" width="12" height="12" fill="white"/>
<rect x="231" y="55" width="12" height="12" fill="white"/>
<rect x="231" y="44" width="12" height="12" fill="white"/>
<rect x="231" y="33" width="12" height="12" fill="white"/>
</svg>
